<mxfile host="app.diagrams.net" modified="2022-03-23T21:13:02.155Z" agent="5.0 (Macintosh; Intel Mac OS X 10_15_7) AppleWebKit/537.36 (KHTML, like Gecko) Chrome/99.0.4844.83 Safari/537.36" etag="JjR72WTWLNaqJiVrYieX" version="17.2.1" type="github">
  <diagram id="zukvZlFOw4OQP83tYi0t" name="Page-1">
    <mxGraphModel dx="860" dy="535" grid="1" gridSize="10" guides="1" tooltips="1" connect="1" arrows="1" fold="1" page="1" pageScale="1" pageWidth="827" pageHeight="1169" math="0" shadow="0">
      <root>
        <mxCell id="0" />
        <mxCell id="1" parent="0" />
        <mxCell id="Ajb0dSscPIaSnfu14eP0-2" value="" style="rounded=0;whiteSpace=wrap;html=1;fillColor=#99CCFF;strokeColor=none;" parent="1" vertex="1">
          <mxGeometry x="240" y="130" width="160" height="20" as="geometry" />
        </mxCell>
        <mxCell id="Ajb0dSscPIaSnfu14eP0-3" value="" style="rounded=0;whiteSpace=wrap;html=1;fillColor=#99CCFF;strokeColor=none;" parent="1" vertex="1">
          <mxGeometry x="240" y="160" width="180" height="20" as="geometry" />
        </mxCell>
        <mxCell id="Ajb0dSscPIaSnfu14eP0-4" value="" style="rounded=0;whiteSpace=wrap;html=1;fillColor=#99CCFF;strokeColor=none;" parent="1" vertex="1">
          <mxGeometry x="240" y="190" width="200" height="20" as="geometry" />
        </mxCell>
        <mxCell id="Ajb0dSscPIaSnfu14eP0-5" value="" style="rounded=0;whiteSpace=wrap;html=1;fillColor=#0066CC;strokeColor=none;" parent="1" vertex="1">
          <mxGeometry x="405" y="130" width="20" height="20" as="geometry" />
        </mxCell>
        <mxCell id="Ajb0dSscPIaSnfu14eP0-6" value="" style="rounded=0;whiteSpace=wrap;html=1;fillColor=#0066CC;strokeColor=none;" parent="1" vertex="1">
          <mxGeometry x="425" y="160" width="20" height="20" as="geometry" />
        </mxCell>
        <mxCell id="Ajb0dSscPIaSnfu14eP0-7" value="" style="rounded=0;whiteSpace=wrap;html=1;fillColor=#0066CC;strokeColor=none;" parent="1" vertex="1">
          <mxGeometry x="445" y="190" width="20" height="20" as="geometry" />
        </mxCell>
        <mxCell id="Ajb0dSscPIaSnfu14eP0-8" value="" style="rounded=0;whiteSpace=wrap;html=1;fillColor=#99CCFF;strokeColor=none;" parent="1" vertex="1">
          <mxGeometry x="240" y="280" width="300" height="20" as="geometry" />
        </mxCell>
        <mxCell id="Ajb0dSscPIaSnfu14eP0-9" value="" style="rounded=0;whiteSpace=wrap;html=1;fillColor=#0066CC;strokeColor=none;" parent="1" vertex="1">
          <mxGeometry x="525" y="250" width="20" height="20" as="geometry" />
        </mxCell>
        <mxCell id="Ajb0dSscPIaSnfu14eP0-10" value="" style="rounded=0;whiteSpace=wrap;html=1;fillColor=#99CCFF;strokeColor=none;" parent="1" vertex="1">
          <mxGeometry x="240" y="250" width="280" height="20" as="geometry" />
        </mxCell>
        <mxCell id="Ajb0dSscPIaSnfu14eP0-11" value="" style="rounded=0;whiteSpace=wrap;html=1;fillColor=#0066CC;strokeColor=none;" parent="1" vertex="1">
          <mxGeometry x="545" y="280" width="20" height="20" as="geometry" />
        </mxCell>
        <mxCell id="Ajb0dSscPIaSnfu14eP0-12" value="" style="endArrow=none;dashed=1;html=1;strokeWidth=2;rounded=0;dashPattern=1 4;endSize=0;strokeColor=#003366;" parent="1" edge="1">
          <mxGeometry width="50" height="50" relative="1" as="geometry">
            <mxPoint x="320" y="242" as="sourcePoint" />
            <mxPoint x="320" y="212" as="targetPoint" />
            <Array as="points">
              <mxPoint x="320" y="232" />
            </Array>
          </mxGeometry>
        </mxCell>
        <mxCell id="Ajb0dSscPIaSnfu14eP0-14" value="" style="endArrow=none;dashed=1;html=1;strokeWidth=2;rounded=0;dashPattern=1 4;endSize=0;strokeColor=#003366;" parent="1" edge="1">
          <mxGeometry width="50" height="50" relative="1" as="geometry">
            <mxPoint x="480" y="242" as="sourcePoint" />
            <mxPoint x="480" y="212" as="targetPoint" />
            <Array as="points">
              <mxPoint x="480" y="232" />
            </Array>
          </mxGeometry>
        </mxCell>
        <mxCell id="Ajb0dSscPIaSnfu14eP0-16" value="&lt;font style=&quot;font-size: 9px&quot;&gt;: Training&lt;/font&gt;" style="text;html=1;align=center;verticalAlign=middle;resizable=0;points=[];autosize=1;strokeColor=none;fillColor=none;fontFamily=Helvetica;fontSize=13;" parent="1" vertex="1">
          <mxGeometry x="608" y="165" width="50" height="20" as="geometry" />
        </mxCell>
        <mxCell id="Ajb0dSscPIaSnfu14eP0-17" value="" style="rounded=0;whiteSpace=wrap;html=1;fillColor=#99CCFF;strokeColor=none;" parent="1" vertex="1">
          <mxGeometry x="585" y="171" width="26" height="10" as="geometry" />
        </mxCell>
        <mxCell id="Ajb0dSscPIaSnfu14eP0-18" value="&lt;font style=&quot;font-size: 9px&quot;&gt;: Forecasting&lt;/font&gt;" style="text;html=1;align=center;verticalAlign=middle;resizable=0;points=[];autosize=1;strokeColor=none;fillColor=none;fontFamily=Helvetica;fontSize=13;" parent="1" vertex="1">
          <mxGeometry x="605" y="186.14" width="70" height="20" as="geometry" />
        </mxCell>
        <mxCell id="Ajb0dSscPIaSnfu14eP0-20" value="" style="rounded=0;whiteSpace=wrap;html=1;fillColor=#0066CC;strokeColor=none;" parent="1" vertex="1">
          <mxGeometry x="585" y="193" width="26" height="10" as="geometry" />
        </mxCell>
        <mxCell id="Ajb0dSscPIaSnfu14eP0-23" value="" style="shape=curlyBracket;whiteSpace=wrap;html=1;rounded=1;flipH=1;fontFamily=Helvetica;fontSize=13;strokeColor=#004C99;fillColor=none;rotation=90;size=0.3213190184049093;" parent="1" vertex="1">
          <mxGeometry x="395.37" y="202.14" width="15.27" height="322.5" as="geometry" />
        </mxCell>
        <mxCell id="Ajb0dSscPIaSnfu14eP0-24" value="&lt;font style=&quot;font-size: 10px&quot;&gt;T&lt;/font&gt;" style="text;html=1;align=center;verticalAlign=middle;resizable=0;points=[];autosize=1;strokeColor=none;fillColor=none;fontFamily=Helvetica;fontSize=13;" parent="1" vertex="1">
          <mxGeometry x="393" y="368" width="20" height="20" as="geometry" />
        </mxCell>
        <mxCell id="Ajb0dSscPIaSnfu14eP0-25" value="&lt;font style=&quot;font-size: 13px&quot; color=&quot;#cce5ff&quot;&gt;&lt;b&gt;Available Historical Time Series&lt;/b&gt;&lt;/font&gt;" style="rounded=0;whiteSpace=wrap;html=1;fillColor=#3399FF;strokeColor=none;" parent="1" vertex="1">
          <mxGeometry x="240" y="334" width="325" height="20" as="geometry" />
        </mxCell>
        <mxCell id="Ajb0dSscPIaSnfu14eP0-26" value="" style="endArrow=classic;html=1;rounded=0;fontFamily=Helvetica;fontSize=13;fontColor=#CCE5FF;strokeColor=#004C99;strokeWidth=3;" parent="1" edge="1">
          <mxGeometry width="50" height="50" relative="1" as="geometry">
            <mxPoint x="240" y="120" as="sourcePoint" />
            <mxPoint x="565" y="120" as="targetPoint" />
            <Array as="points">
              <mxPoint x="475" y="120" />
            </Array>
          </mxGeometry>
        </mxCell>
        <mxCell id="Ajb0dSscPIaSnfu14eP0-27" value="Time" style="text;html=1;align=center;verticalAlign=middle;resizable=0;points=[];autosize=1;strokeColor=none;fillColor=none;fontFamily=Helvetica;fontSize=13;" parent="1" vertex="1">
          <mxGeometry x="240" y="90" width="40" height="20" as="geometry" />
        </mxCell>
        <mxCell id="Ajb0dSscPIaSnfu14eP0-28" value="Present" style="text;html=1;align=center;verticalAlign=middle;resizable=0;points=[];autosize=1;strokeColor=none;fillColor=none;fontFamily=Helvetica;fontSize=13;" parent="1" vertex="1">
          <mxGeometry x="503" y="90" width="60" height="20" as="geometry" />
        </mxCell>
        <mxCell id="Ajb0dSscPIaSnfu14eP0-29" value="" style="endArrow=none;dashed=1;html=1;strokeWidth=1;rounded=0;fontFamily=Helvetica;fontSize=13;fontColor=#CCE5FF;" parent="1" edge="1">
          <mxGeometry width="50" height="50" relative="1" as="geometry">
            <mxPoint x="400" y="301" as="sourcePoint" />
            <mxPoint x="400" y="130" as="targetPoint" />
          </mxGeometry>
        </mxCell>
        <mxCell id="Ajb0dSscPIaSnfu14eP0-36" style="edgeStyle=orthogonalEdgeStyle;rounded=0;orthogonalLoop=1;jettySize=auto;html=1;fontFamily=Helvetica;fontSize=9;fontColor=#CCE5FF;strokeColor=#004C99;strokeWidth=1;endArrow=blockThin;endFill=1;" parent="1" source="Ajb0dSscPIaSnfu14eP0-35" edge="1">
          <mxGeometry relative="1" as="geometry">
            <mxPoint x="400" y="300.0000000000001" as="targetPoint" />
          </mxGeometry>
        </mxCell>
        <mxCell id="Ajb0dSscPIaSnfu14eP0-35" value="&lt;font style=&quot;font-size: 9px&quot;&gt;startpoint: k&lt;/font&gt;" style="text;html=1;align=center;verticalAlign=middle;resizable=0;points=[];autosize=1;strokeColor=none;fillColor=none;fontFamily=Helvetica;fontSize=13;" parent="1" vertex="1">
          <mxGeometry x="420" y="310" width="60" height="20" as="geometry" />
        </mxCell>
        <mxCell id="Ajb0dSscPIaSnfu14eP0-37" value="Pass 1" style="text;html=1;align=center;verticalAlign=middle;resizable=0;points=[];autosize=1;strokeColor=none;fillColor=none;fontFamily=Helvetica;fontSize=13;" parent="1" vertex="1">
          <mxGeometry x="160" y="130" width="60" height="20" as="geometry" />
        </mxCell>
        <mxCell id="Ajb0dSscPIaSnfu14eP0-38" value="Pass 2" style="text;html=1;align=center;verticalAlign=middle;resizable=0;points=[];autosize=1;strokeColor=none;fillColor=none;fontFamily=Helvetica;fontSize=13;" parent="1" vertex="1">
          <mxGeometry x="160" y="160" width="60" height="20" as="geometry" />
        </mxCell>
        <mxCell id="Ajb0dSscPIaSnfu14eP0-39" value="Pass 3" style="text;html=1;align=center;verticalAlign=middle;resizable=0;points=[];autosize=1;strokeColor=none;fillColor=none;fontFamily=Helvetica;fontSize=13;" parent="1" vertex="1">
          <mxGeometry x="160" y="190" width="60" height="20" as="geometry" />
        </mxCell>
        <mxCell id="Ajb0dSscPIaSnfu14eP0-40" value="" style="endArrow=none;dashed=1;html=1;strokeWidth=2;rounded=0;dashPattern=1 4;endSize=0;strokeColor=#003366;" parent="1" edge="1">
          <mxGeometry width="50" height="50" relative="1" as="geometry">
            <mxPoint x="193.63" y="240" as="sourcePoint" />
            <mxPoint x="193.63" y="210" as="targetPoint" />
            <Array as="points">
              <mxPoint x="193.63" y="230" />
            </Array>
          </mxGeometry>
        </mxCell>
        <mxCell id="Ajb0dSscPIaSnfu14eP0-41" value="Pass T-k+1" style="text;html=1;align=center;verticalAlign=middle;resizable=0;points=[];autosize=1;strokeColor=none;fillColor=none;fontFamily=Helvetica;fontSize=13;" parent="1" vertex="1">
          <mxGeometry x="162" y="250" width="80" height="20" as="geometry" />
        </mxCell>
        <mxCell id="Ajb0dSscPIaSnfu14eP0-42" value="Pass T-k" style="text;html=1;align=center;verticalAlign=middle;resizable=0;points=[];autosize=1;strokeColor=none;fillColor=none;fontFamily=Helvetica;fontSize=13;" parent="1" vertex="1">
          <mxGeometry x="159" y="280" width="70" height="20" as="geometry" />
        </mxCell>
        <mxCell id="Ajb0dSscPIaSnfu14eP0-43" value="" style="rounded=0;whiteSpace=wrap;html=1;fontFamily=Helvetica;fontSize=10;fontColor=#CCE5FF;strokeColor=#001933;fillColor=none;" parent="1" vertex="1">
          <mxGeometry x="576" y="162" width="100" height="50" as="geometry" />
        </mxCell>
      </root>
    </mxGraphModel>
  </diagram>
</mxfile>
